<?xml version="1.0" ?><svg height="72" viewBox="0 0 72 72" width="72" xmlns="http://www.w3.org/2000/svg"><g fill="none" fill-rule="evenodd"><path d="M36,72 L36,72 C55.882251,72 72,55.882251 72,36 L72,36 C72,16.117749 55.882251,-3.65231026e-15 36,0 L36,0 C16.117749,3.65231026e-15 -2.4348735e-15,16.117749 0,36 L0,36 C2.4348735e-15,55.882251 16.117749,72 36,72 Z" fill="#FFF"/><path d="M40.399685,43.2 L40.399685,43.2 L30.20018,43.2 L30.20018,54 L23,54 L23,18 L40.399685,18 C47.359109,18 53,23.64075 53,30.6 C53,37.55925 47.359109,43.2 40.399685,43.2 M36,0 C16.11675,0 0,16.11675 0,36 C0,55.88325 16.11675,72 36,72 C55.881,72 72,55.88325 72,36 C72,16.11675 55.881,0 36,0 M41.4612722,25 L41.4612722,25 L31,25 L31,36 L41.4612722,36 C44.5214193,36 47,33.5364583 47,30.5 C47,27.4635417 44.5214193,25 41.4612722,25" fill="#DE5425"/></g></svg>