<?xml version="1.0" ?><!DOCTYPE svg  PUBLIC '-//W3C//DTD SVG 1.1//EN'  'http://www.w3.org/Graphics/SVG/1.1/DTD/svg11.dtd'><svg height="100%" style="fill-rule:evenodd;clip-rule:evenodd;stroke-linejoin:round;stroke-miterlimit:2;" version="1.1" viewBox="0 0 512 512" width="100%" xml:space="preserve" xmlns="http://www.w3.org/2000/svg" xmlns:serif="http://www.serif.com/" xmlns:xlink="http://www.w3.org/1999/xlink"><g id="Artwork"><circle cx="255.999" cy="255.999" r="256" style="fill:#ff4500;"/><path d="M426.666,255.999c0,-20.659 -16.767,-37.427 -37.427,-37.427c-10.18,0 -19.163,3.893 -25.75,10.48c-25.45,-18.264 -60.781,-30.241 -99.705,-31.738l17.067,-79.944l55.391,11.677c0.599,14.073 12.276,25.451 26.648,25.451c14.672,0 26.648,-11.977 26.648,-26.648c0,-14.672 -11.976,-26.648 -26.648,-26.648c-10.479,0 -19.462,5.988 -23.653,14.97l-61.979,-13.174c-1.797,-0.299 -3.593,0 -5.09,0.898c-1.497,0.899 -2.396,2.396 -2.995,4.192l-18.863,89.226c-39.822,1.198 -75.452,12.875 -101.202,31.738c-6.587,-6.288 -15.869,-10.48 -25.75,-10.48c-20.659,0 -37.426,16.768 -37.426,37.427c0,15.27 8.982,28.145 22.156,34.134c-0.599,3.593 -0.898,7.485 -0.898,11.377c0,57.488 66.77,103.897 149.408,103.897c82.639,0 149.408,-46.409 149.408,-103.897c0,-3.892 -0.299,-7.485 -0.898,-11.078c12.276,-5.988 21.558,-19.163 21.558,-34.433Zm-256,26.648c0,-14.671 11.977,-26.648 26.648,-26.648c14.671,0 26.648,11.977 26.648,26.648c0,14.672 -11.977,26.648 -26.648,26.648c-14.671,0 -26.648,-11.976 -26.648,-26.648Zm148.809,70.363c-18.264,18.264 -52.996,19.462 -63.176,19.462c-10.18,0 -45.212,-1.497 -63.177,-19.462c-2.695,-2.695 -2.695,-7.186 0,-9.881c2.695,-2.695 7.186,-2.695 9.881,0c11.378,11.378 35.93,15.57 53.595,15.57c17.666,0 41.918,-4.192 53.595,-15.57c2.695,-2.695 7.186,-2.695 9.881,0c2.096,2.994 2.096,7.186 -0.599,9.881Zm-4.79,-43.715c-14.672,0 -26.648,-11.976 -26.648,-26.648c0,-14.671 11.976,-26.648 26.648,-26.648c14.671,0 26.648,11.977 26.648,26.648c0,14.672 -11.977,26.648 -26.648,26.648Z" style="fill:#fff;fill-rule:nonzero;"/></g></svg>