<svg xmlns="http://www.w3.org/2000/svg" xmlns:xlink="http://www.w3.org/1999/xlink" width="58.894" height="57.681" viewBox="0 0 58.894 57.681">
  <defs>
    <linearGradient id="linear-gradient" y1="0.5" x2="1" y2="0.5" gradientUnits="objectBoundingBox">
      <stop offset="0" stop-color="#e3156a"/>
      <stop offset="1" stop-color="#91187f"/>
    </linearGradient>
  </defs>
  <g id="Group_7" data-name="Group 7" transform="translate(1528.394 -821.497)">
    <g id="Group_45" data-name="Group 45">
      <g id="Group_42" data-name="Group 42">
        <path id="Path_170" data-name="Path 170" d="M-1501.434,839.988a25.146,25.146,0,0,1-10.955-6.246A25.162,25.162,0,0,1-1523.4,840a17.836,17.836,0,0,0-.316,3.349,17.817,17.817,0,0,0,11.08,16.421,17.744,17.744,0,0,0,11.49-16.583A17.852,17.852,0,0,0-1501.434,839.988Zm-11.786,13.107h0l-6.754-6.754,2.076-2.082,4.681,4.681,7.321-7.323,2.079,2.079Zm11.786-13.107a25.146,25.146,0,0,1-10.955-6.246A25.162,25.162,0,0,1-1523.4,840a17.836,17.836,0,0,0-.316,3.349,17.817,17.817,0,0,0,11.08,16.421,17.744,17.744,0,0,0,11.49-16.583A17.852,17.852,0,0,0-1501.434,839.988Zm-11.786,13.107h0l-6.754-6.754,2.076-2.082,4.681,4.681,7.321-7.323,2.079,2.079Zm.831-19.353A25.162,25.162,0,0,1-1523.4,840a17.836,17.836,0,0,0-.316,3.349,17.817,17.817,0,0,0,11.08,16.421,17.744,17.744,0,0,0,11.49-16.583,17.852,17.852,0,0,0-.289-3.2A25.146,25.146,0,0,1-1512.389,833.742Zm-.831,19.353h0l-6.754-6.754,2.076-2.082,4.681,4.681,7.321-7.323,2.079,2.079Zm11.786-13.107a25.146,25.146,0,0,1-10.955-6.246A25.162,25.162,0,0,1-1523.4,840a17.836,17.836,0,0,0-.316,3.349,17.817,17.817,0,0,0,11.08,16.421,17.744,17.744,0,0,0,11.49-16.583A17.852,17.852,0,0,0-1501.434,839.988Zm-11.786,13.107h0l-6.754-6.754,2.076-2.082,4.681,4.681,7.321-7.323,2.079,2.079Zm11.786-13.107a25.146,25.146,0,0,1-10.955-6.246A25.162,25.162,0,0,1-1523.4,840a17.836,17.836,0,0,0-.316,3.349,17.817,17.817,0,0,0,11.08,16.421,17.744,17.744,0,0,0,11.49-16.583A17.852,17.852,0,0,0-1501.434,839.988Zm-11.786,13.107h0l-6.754-6.754,2.076-2.082,4.681,4.681,7.321-7.323,2.079,2.079Z" fill="url(#linear-gradient)"/>
      </g>
      <g id="Group_44" data-name="Group 44">
        <g id="Group_43" data-name="Group 43">
          <path id="Path_171" data-name="Path 171" d="M-1470.17,823.67a4.667,4.667,0,0,0-.679-.855c-.079-.08-.164-.156-.249-.229a4.5,4.5,0,0,0-2.682-1.089h-34.341a4.5,4.5,0,0,0-2.682,1.089,2.388,2.388,0,0,0-.246.229,4.417,4.417,0,0,0-.679.849,4.544,4.544,0,0,0-.673,2.386v1.79l-.569.587-.1.1a29.384,29.384,0,0,1-13.664,8.005c-.131.037-.264.07-.4.1l-.579.143-.128.581c-.045.21-.088.423-.13.637a24.057,24.057,0,0,0-.427,4.517,23.809,23.809,0,0,0,4.311,13.709,23.9,23.9,0,0,0,10,8.222c.344.152.691.3,1.044.432l.332.128.334-.122c.454-.161.9-.338,1.343-.523a23.972,23.972,0,0,0,11.417-10.188h25.56a4.523,4.523,0,0,0,2.946-1.087c.092-.076.174-.152.259-.237a4.74,4.74,0,0,0,.679-.853,4.531,4.531,0,0,0,.673-2.383V826.05A4.563,4.563,0,0,0-1470.17,823.67Zm-37.915,0c.079-.006.159-.009.241-.009h33.787c.082,0,.161,0,.24.009h.357l-.058.052-16.723,14.8a1.068,1.068,0,0,1-1.413,0l-16.723-14.8-.058-.052Zm-2.14,2.377a2.328,2.328,0,0,1,.177-.9l14.337,12.69-1.023.9q-.078-.529-.183-1.05c-.018-.113-.039-.222-.064-.335l-.124-.587-.582-.143c-.14-.037-.28-.07-.42-.107a29.451,29.451,0,0,1-12.118-6.578Zm-2.462,36.91a22.188,22.188,0,0,1-13.789-20.442,22.153,22.153,0,0,1,.4-4.167,31.266,31.266,0,0,0,13.7-7.8,31.274,31.274,0,0,0,13.634,7.777,22.125,22.125,0,0,1,.362,3.988A22.089,22.089,0,0,1-1512.687,862.96ZM-1498.518,852a23.836,23.836,0,0,0,2.052-9.679c0-.3-.006-.594-.018-.892l2.413-2.137,2.417,2.137a1.068,1.068,0,0,0,1.413,0l2.416-2.137,14.3,12.647.067.061Zm26.841-2.383a2.338,2.338,0,0,1-.176.9l-14.328-12.675,14.331-12.681a2.356,2.356,0,0,1,.173.892Z" fill="url(#linear-gradient)"/>
        </g>
      </g>
    </g>
    <path id="Path_172" data-name="Path 172" d="M-1528.394,876.209V875.2a2.775,2.775,0,0,0,1.688.566q1.236,0,1.236-.823a.72.72,0,0,0-.106-.4,1.057,1.057,0,0,0-.286-.289,2.208,2.208,0,0,0-.423-.226c-.163-.067-.337-.136-.524-.209a6.683,6.683,0,0,1-.683-.312,2.057,2.057,0,0,1-.493-.354,1.333,1.333,0,0,1-.3-.449,1.585,1.585,0,0,1-.1-.59,1.4,1.4,0,0,1,.189-.729,1.667,1.667,0,0,1,.5-.532,2.338,2.338,0,0,1,.718-.323,3.163,3.163,0,0,1,.833-.109,3.365,3.365,0,0,1,1.361.263v.95a2.655,2.655,0,0,0-1.487-.423,1.736,1.736,0,0,0-.475.06,1.17,1.17,0,0,0-.363.168.778.778,0,0,0-.235.261.687.687,0,0,0-.083.334.809.809,0,0,0,.083.384.834.834,0,0,0,.243.274,1.862,1.862,0,0,0,.389.218c.153.065.326.135.521.211q.389.15.7.306a2.413,2.413,0,0,1,.526.355,1.4,1.4,0,0,1,.335.455,1.472,1.472,0,0,1,.117.612,1.438,1.438,0,0,1-.192.755,1.634,1.634,0,0,1-.512.532,2.345,2.345,0,0,1-.738.315,3.623,3.623,0,0,1-.875.1A3.322,3.322,0,0,1-1528.394,876.209Zm5.807-7.134a.592.592,0,0,1-.429-.172.578.578,0,0,1-.177-.434.588.588,0,0,1,.177-.438.59.59,0,0,1,.429-.175.607.607,0,0,1,.438.175.584.584,0,0,1,.18.438.583.583,0,0,1-.18.429A.6.6,0,0,1-1522.587,869.075Zm.458,7.346h-.938v-5.859h.938Zm10.217,0h-.938v-3.364a2.541,2.541,0,0,0-.3-1.408,1.141,1.141,0,0,0-1.01-.434,1.25,1.25,0,0,0-1.021.549,2.1,2.1,0,0,0-.421,1.316v3.341h-.938v-3.479q0-1.728-1.333-1.727a1.234,1.234,0,0,0-1.018.517,2.144,2.144,0,0,0-.4,1.348v3.341h-.938v-5.859h.938v.927h.023a1.992,1.992,0,0,1,1.82-1.064,1.694,1.694,0,0,1,1.046.335,1.684,1.684,0,0,1,.613.878,2.089,2.089,0,0,1,1.945-1.213q1.933,0,1.933,2.386Zm2.735-.847h-.023v3.541h-.938v-8.553h.938v1.03h.023a2.218,2.218,0,0,1,2.025-1.167,2.144,2.144,0,0,1,1.768.787,3.259,3.259,0,0,1,.635,2.108,3.629,3.629,0,0,1-.715,2.354,2.383,2.383,0,0,1-1.957.884A1.959,1.959,0,0,1-1509.177,875.574Zm-.023-2.363v.818a1.739,1.739,0,0,0,.472,1.233,1.566,1.566,0,0,0,1.2.506,1.568,1.568,0,0,0,1.335-.652,2.986,2.986,0,0,0,.484-1.813,2.366,2.366,0,0,0-.452-1.534,1.5,1.5,0,0,0-1.224-.554,1.66,1.66,0,0,0-1.316.569A2.088,2.088,0,0,0-1509.2,873.211Zm6.888,3.21h-.938v-8.673h.938Zm6.608-2.7h-4.136a2.186,2.186,0,0,0,.526,1.51,1.812,1.812,0,0,0,1.384.532,2.879,2.879,0,0,0,1.82-.652V876a3.4,3.4,0,0,1-2.043.561,2.478,2.478,0,0,1-1.951-.8,3.267,3.267,0,0,1-.709-2.246,3.2,3.2,0,0,1,.775-2.228,2.486,2.486,0,0,1,1.925-.861,2.2,2.2,0,0,1,1.779.744,3.1,3.1,0,0,1,.63,2.065Zm-.961-.795a1.914,1.914,0,0,0-.392-1.265,1.336,1.336,0,0,0-1.073-.451,1.517,1.517,0,0,0-1.127.474,2.154,2.154,0,0,0-.572,1.242Z" fill="url(#linear-gradient)"/>
    <path id="Path_173" data-name="Path 173" d="M-1493.347,876.421h-.938v-8.673h.938Z" fill="#ae0721"/>
    <path id="Path_174" data-name="Path 174" d="M-1489,876.558a2.719,2.719,0,0,1-2.074-.821,3.04,3.04,0,0,1-.775-2.177,3.169,3.169,0,0,1,.806-2.3,2.9,2.9,0,0,1,2.18-.83,2.627,2.627,0,0,1,2.045.807,3.2,3.2,0,0,1,.735,2.237,3.148,3.148,0,0,1-.792,2.245A2.775,2.775,0,0,1-1489,876.558Zm.068-5.343a1.785,1.785,0,0,0-1.43.615,2.524,2.524,0,0,0-.526,1.7,2.389,2.389,0,0,0,.532,1.642,1.809,1.809,0,0,0,1.424.6,1.714,1.714,0,0,0,1.4-.589,2.557,2.557,0,0,0,.489-1.676,2.6,2.6,0,0,0-.489-1.693A1.706,1.706,0,0,0-1488.931,871.215Z" fill="#ae0721"/>
    <path id="Path_175" data-name="Path 175" d="M-1479.583,875.951q0,3.228-3.089,3.227a4.139,4.139,0,0,1-1.9-.412v-.938a3.9,3.9,0,0,0,1.888.549q2.162,0,2.162-2.3v-.64h-.023a2.194,2.194,0,0,1-2.014,1.121,2.2,2.2,0,0,1-1.759-.781,3.123,3.123,0,0,1-.666-2.1,3.645,3.645,0,0,1,.718-2.374,2.4,2.4,0,0,1,1.965-.881,1.91,1.91,0,0,1,1.756.95h.023v-.813h.938Zm-.938-2.179v-.864a1.676,1.676,0,0,0-.472-1.2,1.554,1.554,0,0,0-1.176-.5,1.627,1.627,0,0,0-1.361.632,2.819,2.819,0,0,0-.492,1.77,2.42,2.42,0,0,0,.472,1.565,1.523,1.523,0,0,0,1.25.586,1.632,1.632,0,0,0,1.284-.56A2.091,2.091,0,0,0-1480.521,873.772Z" fill="#ae0721"/>
    <path id="Path_176" data-name="Path 176" d="M-1477.2,869.075a.591.591,0,0,1-.429-.172.578.578,0,0,1-.177-.434.588.588,0,0,1,.177-.438.59.59,0,0,1,.429-.175.607.607,0,0,1,.438.175.584.584,0,0,1,.18.438.583.583,0,0,1-.18.429A.6.6,0,0,1-1477.2,869.075Zm.458,7.346h-.938v-5.859h.938Z" fill="#ae0721"/>
    <path id="Path_177" data-name="Path 177" d="M-1469.983,876.421h-.938V873.08q0-1.866-1.362-1.865a1.476,1.476,0,0,0-1.164.529,1.962,1.962,0,0,0-.461,1.336v3.341h-.938v-5.859h.938v.973h.023a2.115,2.115,0,0,1,1.923-1.11,1.793,1.793,0,0,1,1.47.621,2.766,2.766,0,0,1,.509,1.793Z" fill="#ae0721"/>
  </g>
</svg>
