<svg xmlns="http://www.w3.org/2000/svg" xmlns:xlink="http://www.w3.org/1999/xlink" width="1470" height="660" viewBox="0 0 1470 660"><defs><clipPath id="b"><rect width="1470" height="660"/></clipPath></defs><g id="a" clip-path="url(#b)"><rect width="1470" height="660" fill="#f6f4f6"/><g transform="translate(-12.094 -113)"><g transform="translate(85.202 162)" fill="#fff" stroke="#707070" stroke-width="1"><rect width="27.018" height="27.018" stroke="none"/><rect x="0.5" y="0.5" width="26.018" height="26.018" fill="none"/></g><g transform="translate(85.202 232.662)" fill="#fff" stroke="#707070" stroke-width="1"><rect width="27.018" height="27.018" stroke="none"/><rect x="0.5" y="0.5" width="26.018" height="26.018" fill="none"/></g><g transform="translate(85.202 303.324)" fill="#fff" stroke="#707070" stroke-width="1"><rect width="27.018" height="27.018" stroke="none"/><rect x="0.5" y="0.5" width="26.018" height="26.018" fill="none"/></g><g transform="translate(84.163 373.987)" fill="#fff" stroke="#707070" stroke-width="1"><rect width="27.018" height="27.018" stroke="none"/><rect x="0.5" y="0.5" width="26.018" height="26.018" fill="none"/></g><g transform="translate(84.163 443.61)" fill="#fff" stroke="#707070" stroke-width="1"><rect width="27.018" height="27.018" stroke="none"/><rect x="0.5" y="0.5" width="26.018" height="26.018" fill="none"/></g><g transform="translate(84.163 514.272)" fill="#fff" stroke="#707070" stroke-width="1"><rect width="25.979" height="25.979" stroke="none"/><rect x="0.5" y="0.5" width="24.979" height="24.979" fill="none"/></g><path d="M16.388,3l4.137,8.381,9.251,1.352-6.694,6.52,1.58,9.211-8.274-4.351L8.114,28.464l1.58-9.211L3,12.733l9.251-1.352Z" transform="translate(136.068 160.339)" fill="none" stroke="#c6c6c6" stroke-linecap="round" stroke-linejoin="round" stroke-width="3"/><path d="M16.388,3l4.137,8.381,9.251,1.352-6.694,6.52,1.58,9.211-8.274-4.351L8.114,28.464l1.58-9.211L3,12.733l9.251-1.352Z" transform="translate(136.068 230.848)" fill="none" stroke="#c6c6c6" stroke-linecap="round" stroke-linejoin="round" stroke-width="3"/><path d="M16.388,3l4.137,8.381,9.251,1.352-6.694,6.52,1.58,9.211-8.274-4.351L8.114,28.464l1.58-9.211L3,12.733l9.251-1.352Z" transform="translate(136.068 301.357)" fill="#f4c85e" stroke="#c6c6c6" stroke-linecap="round" stroke-linejoin="round" stroke-width="3"/><path d="M16.388,3l4.137,8.381,9.251,1.352-6.694,6.52,1.58,9.211-8.274-4.351L8.114,28.464l1.58-9.211L3,12.733l9.251-1.352Z" transform="translate(135.175 371.867)" fill="none" stroke="#c6c6c6" stroke-linecap="round" stroke-linejoin="round" stroke-width="3"/><path d="M16.388,3l4.137,8.381,9.251,1.352-6.694,6.52,1.58,9.211-8.274-4.351L8.114,28.464l1.58-9.211L3,12.733l9.251-1.352Z" transform="translate(135.175 442.376)" fill="#f4c85e" stroke="#c6c6c6" stroke-linecap="round" stroke-linejoin="round" stroke-width="3"/><path d="M16.388,3l4.137,8.381,9.251,1.352-6.694,6.52,1.58,9.211-8.274-4.351L8.114,28.464l1.58-9.211L3,12.733l9.251-1.352Z" transform="translate(134.283 512.885)" fill="none" stroke="#c6c6c6" stroke-linecap="round" stroke-linejoin="round" stroke-width="3"/><text transform="translate(196.391 182.078)" fill="#646464" font-size="24" font-family="Helvetica-Bold, Helvetica" font-weight="700"><tspan x="0" y="0">Facebook via SimpleLogin</tspan></text><text transform="translate(196.391 252.741)" fill="#646464" font-size="24" font-family="Helvetica-Bold, Helvetica" font-weight="700"><tspan x="0" y="0">Tinder via SimpleLogin</tspan></text><text transform="translate(196.391 323.52)" fill="#646464" font-size="20" font-family="Helvetica"><tspan x="0" y="0">Dad</tspan></text><text transform="translate(195.352 393.026)" fill="#646464" font-size="24" font-family="Helvetica-Bold, Helvetica" font-weight="700"><tspan x="0" y="0">Super Deals via SimpleLogin </tspan></text><text transform="translate(195.352 464.845)" fill="#646464" font-size="20" font-family="Helvetica"><tspan x="0" y="0">Buddy</tspan></text><rect width="741.954" height="24.94" rx="12.47" transform="translate(571.524 164.078)" fill="#c6c6c6"/><rect width="741.954" height="24.94" rx="12.47" transform="translate(571.524 234.741)" fill="#c6c6c6"/><rect width="741.954" height="24.94" rx="12.47" transform="translate(571.524 304.364)" fill="#c6c6c6"/><rect width="740.914" height="24.94" rx="12.47" transform="translate(571.524 375.026)" fill="#c6c6c6"/><rect width="740.914" height="24.94" rx="12.47" transform="translate(571.524 445.688)" fill="#c6c6c6"/><rect width="739.875" height="24.94" rx="12.47" transform="translate(571.524 516.35)" fill="#c6c6c6"/><text transform="translate(1368.553 182.196)" fill="#646464" font-size="20" font-family="Helvetica"><tspan x="0" y="0">April 12</tspan></text><text transform="translate(1368.553 252.858)" fill="#646464" font-size="20" font-family="Helvetica"><tspan x="0" y="0">April 12</tspan></text><text transform="translate(1368.553 323.52)" fill="#646464" font-size="20" font-family="Helvetica"><tspan x="0" y="0">April 11</tspan></text><text transform="translate(1367.514 394.182)" fill="#646464" font-size="20" font-family="Helvetica"><tspan x="0" y="0">April 10</tspan></text><text transform="translate(1367.514 464.845)" fill="#646464" font-size="20" font-family="Helvetica"><tspan x="0" y="0">April 10</tspan></text><text transform="translate(1366.475 534.468)" fill="#646464" font-size="20" font-family="Helvetica"><tspan x="0" y="0">April 10</tspan></text><line x2="1357.756" transform="translate(83.285 210.642)" fill="none" stroke="#707070" stroke-width="1"/><line x2="1357.756" transform="translate(83.285 281.152)" fill="none" stroke="#707070" stroke-width="1"/><line x2="1357.756" transform="translate(83.285 351.661)" fill="none" stroke="#707070" stroke-width="1"/><line x2="1357.756" transform="translate(82.393 422.17)" fill="none" stroke="#707070" stroke-width="1"/><line x2="1357.756" transform="translate(82.393 492.68)" fill="none" stroke="#707070" stroke-width="1"/><line x2="1357.756" transform="translate(81.5 563.189)" fill="none" stroke="#707070" stroke-width="1"/><rect width="226.535" height="27.018" rx="13.509" transform="translate(191.195 514.272)" fill="#c6c6c6"/></g><path d="M80,9.5v50a4.911,4.911,0,0,1-5,5H70V19.123L40,40.667,10,19.123V64.5H5a4.909,4.909,0,0,1-5-5V9.5a4.913,4.913,0,0,1,5-5H6.667L40,28.667,73.333,4.5H75a4.913,4.913,0,0,1,5,5Z" transform="translate(527.519 549.5)" fill="#ea31a0"/><path d="M26.536,50.881a11.714,11.714,0,0,1-4.888-1.763C19.5,47.629,5.2,37.4,5.2,37.4V57.644A2.537,2.537,0,0,0,7.91,60H45.162a2.538,2.538,0,0,0,2.713-2.355V37.4S33.567,47.626,31.424,49.121a11.784,11.784,0,0,1-4.888,1.76ZM26.536,0S8.848-.576,5.2,19.06V32.435s.15,1.43,4.175,4.338S23.806,47.864,26.541,47.864,39.677,39.681,43.7,36.771s4.17-4.343,4.17-4.343V19.052C44.225-.571,26.536.009,26.536.009ZM38.652,26.345H14.425V19.06c2.46-9.751,12.111-9.886,12.111-9.886s9.658.135,12.116,9.886v7.285Z" transform="translate(401.321 553.998)" fill="#ea31a0"/><path d="M64.658,18.87V47.1a2.072,2.072,0,0,1-.641,1.552,2.154,2.154,0,0,1-1.563.62H39.428V30.521l4.311,3.311a1.542,1.542,0,0,0,1.021.339,1.665,1.665,0,0,0,1.048-.342Zm-25.23-5.445H62.454a2.169,2.169,0,0,1,1.463.517,1.905,1.905,0,0,1,.668,1.374L44.733,31.146l-5.3-4.173V13.425ZM36.112,1.3v60L0,55.056V7.708L36.117,1.3h-.005ZM25.2,31.416a12.527,12.527,0,0,0-2.368-7.581A7.307,7.307,0,0,0,17.094,20.7a7.344,7.344,0,0,0-5.658,3.136,12.364,12.364,0,0,0-2.344,7.581,12.294,12.294,0,0,0,2.384,7.519,7.462,7.462,0,0,0,5.66,3.168,7.432,7.432,0,0,0,5.779-3.152A12.366,12.366,0,0,0,25.3,31.416h-.1ZM16.8,24.729a3.606,3.606,0,0,1,2.918,1.932,8.841,8.841,0,0,1,1.172,4.72,8.933,8.933,0,0,1-1.172,4.771,3.5,3.5,0,0,1-2.953,1.9,3.453,3.453,0,0,1-2.95-1.859,8.545,8.545,0,0,1-1.172-4.725,8.317,8.317,0,0,1,1.172-4.688,3.713,3.713,0,0,1,2.912-1.942Z" transform="translate(684.519 552.704)" fill="#ea31a0"/><path d="M-6.75,8.174-6.3,9.6a7.585,7.585,0,0,0,.562.75,1.564,1.564,0,0,0,.412.375l.15.15,1.425.75H4.574L26.1,37.422a2.769,2.769,0,0,1,.825,1.877V53.7a1.729,1.729,0,0,1-.187.9.811.811,0,0,1-.412.375H26.1q-8.4,0-10.649.225-.749,0-.75.675V60H53.4V55.725a.465.465,0,0,0-.187-.375.563.563,0,0,0-.34-.15H41.921q-.675,0-.675-1.123V38.929a.632.632,0,0,1,.112-.527,3.049,3.049,0,0,1,.412-.525L42,37.649q.826-.823,19.8-18.671h9.974a2.2,2.2,0,0,0,1.35-.525l1.275-1.425a2,2,0,0,0,.45-1.35V14.624a.677.677,0,0,0-.225-.337.457.457,0,0,0-.227-.112H41.546l-.525.45a1.786,1.786,0,0,0,.112.937,2.035,2.035,0,0,0,.412.712l.15.3L43.421,18.3l1.35.525H53.4L37.872,33.447l-17.1-21.823h3.075a2.9,2.9,0,0,0,1.65-.3l5.1-1.575a.6.6,0,0,0,.225-.075A1.044,1.044,0,0,0,31.16,9.3a1.236,1.236,0,0,0,.187-.675V7.574A.507.507,0,0,0,31.2,7.2a.425.425,0,0,0-.3-.15H-6a.8.8,0,0,0-.75.525ZM82.493,0,96.367.525,90.142,43.047l-4.572-.225Zm.975,57.221.3-8.252,8.252.3-.3,8.249Z" transform="translate(834.269 554)" fill="#ea31a0"/><path d="M138.432,222.8a5.8,5.8,0,0,0-5.8,5.8V282.19c0,.2.012.408.031.606q3.235-1.205,6.864-2.648c16.83-6.718,30.589-12.43,30.6-18.88a4.463,4.463,0,0,0-.044-.624c-.87-6.368-16.087-8.342-16.066-11.26a.979.979,0,0,1,.139-.479c1.828-3.2,9.068-3.048,11.735-3.275s8.932-.184,9.235-2.092a1.181,1.181,0,0,0,.014-.176c.007-1.773-4.307-2.468-4.307-2.468s5.235.782,5.221,2.819a1.2,1.2,0,0,1-.04.308c-.564,2.188-5.17,2.6-8.217,2.749-2.881.144-7.268.472-7.283,1.879a.747.747,0,0,0,.042.255c.688,2.058,16.768,3.048,27.055,8.388,5.92,3.07,8.865,8.226,10.215,13.553V228.6a5.8,5.8,0,0,0-5.8-5.8H138.432Z" transform="translate(875.891 331.204)" fill="#ea31a0"/></g></svg>